<?xml version="1.0" ?><svg enable-background="new 0 0 32 32" id="Filled_Outline" version="1.1" viewBox="0 0 32 32" xml:space="preserve" xmlns="http://www.w3.org/2000/svg" xmlns:xlink="http://www.w3.org/1999/xlink"><title/><desc/><g><g><circle cx="12" cy="12" fill="#F2B035" r="7"/><path d="M14,23c-2.76,0-5-2.24-5-5s2.24-5,5-5c0-3.31,2.69-6,6-6c2.63,0,4.86,1.69,5.67,4.04    c3,0.33,5.33,2.88,5.33,5.96c0,3.31-2.69,6-6,6H14z" fill="#C9F9FB"/></g><g><rect fill="#1A1A1A" height="2" width="2" x="11"/><rect fill="#1A1A1A" height="2" transform="matrix(0.7071 -0.7071 0.7071 0.7071 -1.3344 4.6358)" width="2" x="3.929" y="2.929"/><rect fill="#1A1A1A" height="2" transform="matrix(0.7071 -0.7071 0.7071 0.7071 2.8078 14.6361)" width="2" x="18.071" y="2.929"/><rect fill="#1A1A1A" height="2" transform="matrix(0.7071 -0.7071 0.7071 0.7071 -12.749 9.3639)" width="2" x="3.929" y="19.071"/><rect fill="#1A1A1A" height="2" width="2" y="11"/><path d="M26.389,10.14C25.272,7.641,22.777,6,20,6c-0.804,0-1.575,0.142-2.295,0.393C16.19,4.85,14.164,4,12,4    c-4.411,0-8,3.589-8,8c0,2.885,1.592,5.545,4.083,6.953C8.542,21.809,11.016,24,14,24h3v-2h-3c-2.206,0-4-1.794-4-4s1.794-4,4-4    c0.553,0,1-0.447,1-1c0-2.757,2.243-5,5-5c2.132,0,4.031,1.353,4.725,3.366c0.126,0.365,0.451,0.626,0.836,0.668    C28.092,12.312,30,14.447,30,17c0,2.757-2.243,5-5,5h-2v2h2c3.859,0,7-3.141,7-7C32,13.634,29.628,10.786,26.389,10.14z     M13.062,12.073c-2.404,0.38-4.32,2.199-4.879,4.539C6.829,15.486,6,13.802,6,12c0-3.309,2.691-6,6-6    c1.418,0,2.756,0.487,3.83,1.382C14.349,8.484,13.316,10.157,13.062,12.073z" fill="#1A1A1A"/><rect fill="#1A1A1A" height="2" width="2" x="19" y="22"/><rect fill="#1A1A1A" height="2" width="10" x="17" y="18"/><rect fill="#1A1A1A" height="2" width="2" x="13" y="18"/><rect fill="#1A1A1A" height="2" width="15" x="8" y="26"/><rect fill="#1A1A1A" height="2" width="2" x="4" y="26"/></g></g></svg>